<svg id="Layer_1" data-name="Layer 1" xmlns="http://www.w3.org/2000/svg" viewBox="0 0 59.318 141.732"><defs><style>.cls-1{fill:#231f20;}</style></defs><path class="cls-1" d="M59.318,0V44.074S47.233,54.3,41.988,58.9,29.317,69.287,29.317,69.287s7.2-8.958,9.968-12.542,4.5-6.417,4.5-6.417l.538-35.767-7.574,5.473Z"/><path class="cls-1" d="M3.42,141.732v0Z"/><path class="cls-1" d="M30.621,63.065c.032-.294.162-1.336.162-1.336l5.342-6.124L22.053,69.287s-4.3,3.843-5.277,4.69-3.258,2.085-4.039,3.062-4.5,4.626-4.5,4.626L3.42,84.271v57.384c0-.559.107-4.124,2.085-5.982,2.15-2.019,3.323-1.889,3.323-1.889l.977-1.5-1.368-.131,1.628-3.062,1.409-.1a7.9,7.9,0,0,0,2.631-2.24c.912-1.368-.326-1.824.26-2.084s.261-.653-.065-1.5c-.1-.271-.255-.588-.411-.894-.029-.055-1.179.959-1.319.929-.2-.044-.771-1.1-.782-1.124s.538.214.751.061c.407-.294,1.138-.267,1.113-.314a1.621,1.621,0,0,0-.557-.627l-.476.366-.654.068-.467-1.657.652-.066a13.769,13.769,0,0,0-.781-2.54,12.443,12.443,0,0,0-2.1-3.036l2.627,1.93-1.093-1.588,1.618,1.24s-1.071-2.357-1.462-3.123a22.23,22.23,0,0,0-1.873-2.525s.342.115.424.131a1.52,1.52,0,0,1,.228.081s-.391-.717-.424-.847-.26-.912-.26-.912l2.671,3.4s.879-.717.879-1.4a9.3,9.3,0,0,1,.2-1.595,25.817,25.817,0,0,0,.553,3.973,15.84,15.84,0,0,0,1.4,1.694s-.342.831-.879.782a1.882,1.882,0,0,1-1.026-.635,7.024,7.024,0,0,0,1.042,1.824c.44.359,2.948,1.222,3.209,1.938s.7,3,.7,3l.114-3.225V83.717L32.021,63.293,30,64.628A12.146,12.146,0,0,0,30.621,63.065ZM12.258,106.727c-.13.163-.287.241-.3,1.055a11.6,11.6,0,0,0,.163,1.848s-.219-.97-.347-1.475a3.017,3.017,0,0,1,.084-1.819,1.416,1.416,0,0,0,.293-.5S12.389,106.564,12.258,106.727Z"/><path class="cls-1" d="M43.943,116.878c.53.711,1.463,1.952,1.727,2.215.374.375,1.71.88,1.808.684s.081-.537.276-.6,1.173.505,1.222.505a.567.567,0,0,0,.326-.489c0-.293-.521-1.026-.619-1.271s.261-.781.31-1.09a6.4,6.4,0,0,0-.034-1.076,7.5,7.5,0,0,1,.571.847,4.753,4.753,0,0,0,.733.864s-.684-1.417-.8-1.662.374-1.4.439-1.6-.945-1.156-1.058-1.384.6-.8.814-.7.961,2.345,1.368,3.012,1.449,3.877,1.841,4.447a6.364,6.364,0,0,0,2.442,1.466,4.9,4.9,0,0,0-.276-1.775c-.228-.636-1.84-2.721-2-3.291s-1.254-3.55-1.434-3.974-.374-1.27-.065-1.465.994.684,1.222,1.156.5,3.844.83,4.723,2.134,3.127,2.459,3.746,1.336.7,1.645,1.092a.694.694,0,0,1-.26.993c-.26.179-.879-.391-1.173-.456a3.006,3.006,0,0,0-.879.049s.684.488.961.733a2.409,2.409,0,0,1,.472.863,3.25,3.25,0,0,1-.521-.13,2.214,2.214,0,0,1-.619-.391,4.863,4.863,0,0,0,1.075,1.5c.684.6.6.163,1.352.7a7.818,7.818,0,0,1,1.221,1.195v-1.9c-.579-.457-1.563-1.474-1.563-1.474s.9.51,1.563.872v-7.227a2.383,2.383,0,0,1-.961-.485l-.83-1.287a11.035,11.035,0,0,0,.929.847c.125.077.543.3.862.475V103.087a6.02,6.02,0,0,1-.716-1.046,12.432,12.432,0,0,1-.342-1.923,5.486,5.486,0,0,0,.586,1.368.869.869,0,0,0,.472.142V83.62L31.76,68.374,43.943,78.407ZM57.56,106.584c.056.1.4.782.4.782a5.428,5.428,0,0,1-.48-.594c-.073-.146-.538-.733-.538-.733A6.516,6.516,0,0,1,57.56,106.584Zm-1.173-1.14s-.481.074-.505.465.505.9.3,1.441c-.1.27-.6.818-.851,1.255a1.428,1.428,0,0,0-.017.773c.025.171,0,.806,0,.806s-.512-.342-.524-.562a2.97,2.97,0,0,1,.427-1.067,5.425,5.425,0,0,0,.236-.7c-.016-.293-.134-.265-.146-.472a6.338,6.338,0,0,1,.4-1.939C55.837,105.273,56.387,105.444,56.387,105.444ZM54.8,94.532c.067-.557.151-1.251.223-1.816.123-.965.212-1.7.216-1.84.011-.342.318-4.488.318-4.488s-.14,4.317-.212,5.05a12.23,12.23,0,0,1-.024,1.71,20.208,20.208,0,0,0-.465,2.06,4.487,4.487,0,0,0,.167,1.662,10.2,10.2,0,0,0-.264,1.091c-.126.808-.179,1.791-.179,1.791s-.065-2.394-.09-3C54.48,96.53,54.7,95.369,54.8,94.532Zm-.524,6.254c.043-.179.288-.179.288-.179a2.561,2.561,0,0,0-.074.6c.009.277,0,.5,0,.5s-.562-.128-.5-.372S54.231,100.965,54.275,100.786Zm-1.257.1c.16-.163,0-.488.128-.521s.429-.611.429-.611a4.757,4.757,0,0,0-.038,1.115c.081.163.048.389-.261.292s-.472.278-.44.392-.374-.211-.374-.211A6.626,6.626,0,0,0,53.018,100.884Zm-.117,4.61a12.946,12.946,0,0,1,.358,1.433v1.221a8.761,8.761,0,0,1-.863-1.14C52.282,106.731,52.9,105.494,52.9,105.494Zm-2.476-9.349c-.015.114-.08.358-.08.358l-.082-1.3A8.646,8.646,0,0,1,50.425,96.145Zm-.162,1.042.164.472a.814.814,0,0,1-.229-.1C50.1,97.5,50.263,97.187,50.263,97.187Zm-.586.782c.049-.066.345-.092.345-.092l-.353.257A.19.19,0,0,1,49.677,97.969Zm.39,3.371a5.837,5.837,0,0,0-.2-1.726,2.7,2.7,0,0,1-.1-.643l.011-.49a3.575,3.575,0,0,0,.189.446,1.346,1.346,0,0,0,.378.508c.163.114-.066,1.629-.049,1.905a12.483,12.483,0,0,1-.033,1.547,12.751,12.751,0,0,0,0,1.58c.016.179.065.506,0,.473a5.7,5.7,0,0,1-.994-1.124C49.074,103.441,50,101.764,50.067,101.34Z"/><path class="cls-1" d="M46.858,121.96c-.228-.5-1.139-.8-1.4-.928s-.26-.571-.26-.571.342-.032.342-.325a2.234,2.234,0,0,0-.358-1.01,9.71,9.71,0,0,0-1.238-1.145v4.467l3.472.883C47.125,123.025,47.087,122.465,46.858,121.96Z"/><path class="cls-1" d="M24.105,65.573s-2.28-1.987-3.16-2.574a28.542,28.542,0,0,1-2.768-2.508V32.64S5.961,22.868,4.007,21.5A31.745,31.745,0,0,0,0,19.154a15.606,15.606,0,0,1,2.085,2.052,14.361,14.361,0,0,1,1.335,2.8V53.39S4,53.834,4.9,54.506a.945.945,0,0,1,.057.366,6.794,6.794,0,0,1-.1.806.294.294,0,0,0,.219.208.193.193,0,0,0,.171-.208c0-.11-.122-.329,0-.476a.433.433,0,0,1,.422-.12l.144.108h0c.118.2.278.659.375.7a1.84,1.84,0,0,1,.733.232c.208.183.269,1.026.916,1.466s1.149.525,1.661.831.221,1,.953,1.417a16.092,16.092,0,0,1,2.1,1.111c.39.367.7.342.6,1.942s-.094,4.626-.061,6.89c.02,1.417-.117,4.553-.109,6.7,0,.733-1.341,2.183-1.341,2.183l2.215-2.509s-.529.351-.5.025a88.814,88.814,0,0,0-.046-9.235,41.743,41.743,0,0,1,.106-5.847.644.644,0,0,1,.347-.4c.108.059.212.114.3.16C16.515,62.055,24.105,65.573,24.105,65.573Z"/><path class="cls-1" d="M31.953,27.427c4.041-3.151,9.824-8.273,9.824-8.273s-5.63,4.073-9.668,6.973Z"/><path class="cls-1" d="M31.42,26.622l-.784.562c-3.957,2.834-10.749,8.29-10.749,8.29s6.384-3.974,10.147-6.613c.347-.243.732-.525,1.141-.836Z"/><path class="cls-1" d="M29.822,40.3c.123-.387.248-.8.368-1.2l-.449.42a108.359,108.359,0,0,0-8.828,10.066s4-3.46,7.863-7.29A8.837,8.837,0,0,0,29.822,40.3Z"/><path class="cls-1" d="M32.841,36.555a23.094,23.094,0,0,0-2.653,4.31q.326-.334.644-.668c4.349-4.56,9.659-11.205,9.659-11.205S36.436,33.068,32.841,36.555Z"/><path class="cls-1" d="M41.793,81.372s-5.57,7.459-7.2,9.251-3.648,4.039-3.648,4.039,1.791-3.42,2.215-3.942S41.793,81.372,41.793,81.372Z"/><path class="cls-1" d="M30.066,94.467a18.008,18.008,0,0,1-1.531,3.192c-.651.847-7.655,8.6-7.655,8.6s3.193-4.788,4.039-5.895S30.066,94.467,30.066,94.467Z"/><path class="cls-1" d="M40.686,100.689s-3.453,3.908-5.212,5.569-4.072,3.616-4.072,3.616v-1.2s3.453-3.062,4.642-3.974S40.686,100.689,40.686,100.689Z"/><path class="cls-1" d="M30.718,109.125V110.4s-2.671,2.377-4.951,4.234-5.277,3.942-5.277,3.942,3.151-3.233,4.551-4.406S30.718,109.125,30.718,109.125Z"/></svg>