<svg id="Layer_1" data-name="Layer 1" xmlns="http://www.w3.org/2000/svg" viewBox="0 0 141.732 126.344"><defs><style>.cls-1{fill:#231f20;}</style></defs><path class="cls-1" d="M90.041,97.793s-.407,1.339-.932,3.181a41.845,41.845,0,0,0-.909,4.614s5.212-.861,7.962-2.319a42.123,42.123,0,0,0,6.408-4.734s-1.363-1.148-2.7-2.391a28.193,28.193,0,0,1-2.128-2.176,42.006,42.006,0,0,1-4.208,2.558A12.631,12.631,0,0,1,90.041,97.793Z"/><path class="cls-1" d="M108.309,74.314s.334,1.984-.933,6.24a19.619,19.619,0,0,1-2.654,6.026s.837,1.1,1.53,1.817,1.889,1.793,1.889,1.793a25.346,25.346,0,0,0,2.869-8.7,27.338,27.338,0,0,0,.12-8.871,17.719,17.719,0,0,1-1.817,1.243A4.2,4.2,0,0,1,108.309,74.314Z"/><path class="cls-1" d="M107.28,62.884a3.374,3.374,0,0,0,.6-.31,2.092,2.092,0,0,0,.452-.527s-.909-2.534-1.053-3.2-.43-.216-.43.239S107.28,62.884,107.28,62.884Z"/><path class="cls-1" d="M86.574,36.448a11.826,11.826,0,0,1-.938,5.108,26.247,26.247,0,0,0,4.176-9.469Z"/><path class="cls-1" d="M90.009,17.3c.217.069,1.107.539,1.781.906l.745-.993a11.238,11.238,0,0,0-3-.359C89.387,16.935,89.706,17.206,90.009,17.3Z"/><path class="cls-1" d="M140.986,64.453a22.323,22.323,0,0,0-5.579-4.033,49.37,49.37,0,0,0-9.245-2.9c-3.491-.638-4.83-.925-8.958.956-4.989,2.273-9.023,6.934-11.191,6.934s-4.095-3.1-6.584-6.025c-3.554-4.176-5.323-5.021-7.348-5.021a32.352,32.352,0,0,0-5.468.8s2.663-3.7,5.755-3.683c2.774.016,3.7,2.694,7.508,2.726,5.308.045,10.345-10.425,10.935-11.732a12.448,12.448,0,0,0,1.148-8.082c-.8-3.953-3.922-8.145-7.014-10.664A36.631,36.631,0,0,0,98.857,19.7l-1.783,2.265.459.357a31.307,31.307,0,0,1,6.265,7.142c.844,1.434,2.2,3.937,2.2,6.392s-1.546,4.495-2.534,5.786-4.5,4.814-5.053,4.862c-.471.04-3.8-1.137-7.465-1.519a2.269,2.269,0,0,1-1.406.4,2.31,2.31,0,0,1-1.235-.518l-1.2-.04a2.16,2.16,0,0,1-.442.976,1.55,1.55,0,0,1-1.231.4,1.834,1.834,0,0,1-1.125-.758,2.583,2.583,0,0,1-.98.777,5.42,5.42,0,0,1-1.791.107,7.5,7.5,0,0,1-5.408,1.639l22.143-29.65s1.22-1.649,1.841-2.582,2.367-3.467,2.678-3.778,1.053.957,1.363,2.63.526,3.372.526,3.372.359-1.841.455-3.037a17.188,17.188,0,0,0,.047-2.08,5.5,5.5,0,0,1,.67,1.2,9.636,9.636,0,0,1,.49,1.4,10.831,10.831,0,0,0-.012-2.57c-.157-1.153-.55-2.63-.526-3.085a47.254,47.254,0,0,1,2.083-4.4C108.338,4.4,110.365,0,110.365,0s-3.515,2.63-4.83,3.562-3.049,2.846-3.694,3.085a11.82,11.82,0,0,1-2.786.311c-.847.049-2.893.454-2.893.454a20.7,20.7,0,0,1,2.014.482,3.776,3.776,0,0,1,.871.375s-1.175.255-2.012.518S94,9.887,94,9.887s2.669-.335,3.718-.394c2.03-.116,2.977.681,2.5,1.3s-1.841,2.129-2.391,2.75-2.08,2.774-2.08,2.774L73.281,46.477c-2.184-2.316-2.306-6.8-.075-10.856C75.56,31.334,79.72,29,82.928,29.984l6.254-8.392C87.019,12.146,79.636,5.186,70.857,5.186c-10.476,0-18.969,9.908-18.969,22.129a24.159,24.159,0,0,0,5.086,15.07,8,8,0,0,1,.917,1.694,7.082,7.082,0,0,1,.368,1.944s-.894-1.2-5.086-1.2-9.3,1.726-9.853,1.677-4.064-3.571-5.053-4.862-2.534-3.331-2.534-5.786,1.355-4.958,2.2-6.393A31.351,31.351,0,0,1,44.2,22.318c2.694-2.1,4.591-3.475,5.1-3.762s2.12-1.163,2.423-1.259.621-.367.478-.447a16.26,16.26,0,0,0-6.137,1.339,37.418,37.418,0,0,0-9.277,5.532c-3.093,2.519-6.217,6.711-7.014,10.664a12.461,12.461,0,0,0,1.148,8.082c.589,1.307,5.627,11.776,10.935,11.732,3.81-.032,4.734-2.71,7.507-2.726,3.093-.018,5.755,3.682,5.755,3.682a32.326,32.326,0,0,0-5.467-.8c-2.025,0-3.794.845-7.349,5.021C39.812,62.3,37.885,65.4,35.717,65.4s-6.2-4.661-11.19-6.934c-4.129-1.881-5.468-1.6-8.959-.957a49.49,49.49,0,0,0-9.245,2.9A22.389,22.389,0,0,0,.744,64.45c-.7.67-.829,1.307-.7,1.387s3.2-1.594,5.5-2.343a34,34,0,0,1,10.823-2.073,11.245,11.245,0,0,1,8.241,3.252c1.355,1.2,3.83,3.825,5.038,4.99,1.354,1.307,4.16,3.794,6.631,3.794,3.028,0,6.679-3.38,8.4-5.8,1.418-2,5.388-5.891,7.827-5.891s5.07,1.983,5.07,1.983l6.79-5.962-4.782,6.934-1.8,1.865-3.459-.031a2.152,2.152,0,0,0-1.387.493c-.51.511-.287,1.563-.287,1.563l.638,2.789a1.564,1.564,0,0,1-.2,1.507l-.813.837a1.653,1.653,0,0,1-1.349.555l-.89-.062c-1.024-.028-1.287.26-1.146,1.14l.273,1.323c.179.622.034,1.27-.179,1.351-.753.287-1.088.036-1.458-.884-.2-.5-2-6.882-2-6.882s-.53,1.637-1.666,5.981c-1.118,4.273-1.841,7.185-1.841,7.185l1.769-1.515s.638-.43.909-.191-.319.845-.319.845-3.754,5.536-6.559,9.569-21.974,30.823-21.974,30.823S38.774,95.649,41.049,93s7.787-8.27,7.787-8.27l1.084,1.021a2.386,2.386,0,0,1,.86,2.167c-.111,1.514-1.785,5.01-3.315,7.05s-5.436,6.356-7.556,8.508-11.541,10.2-11.541,10.2,9.835-7.654,12.354-9.663c1.281-1.022,5.848-4.653,9.532-7.93,3.558-3.165,6.512-6.073,6.512-6.073s-.486-.642-.327-1.12,1.131-.641,1.142-1.108a2.868,2.868,0,0,0-.919-1.969l-5.156-4.662a1.161,1.161,0,0,1-.377-.981.725.725,0,0,1,.694-.755.657.657,0,0,1,.077,0l1.638-.043c1.028-.043,1.323-.521,1.164-1.339l-.319-1.359a1.5,1.5,0,0,1,.183-1.311l.686-.9a1.293,1.293,0,0,1,1.012-.5l2.965-.041a2.157,2.157,0,0,0,1.5-.541,2.051,2.051,0,0,0,.223-1.642L60.2,68.186l1.578-2.344,5.212-6.073-.106.449a58.332,58.332,0,0,0-4.713,8.106,11.906,11.906,0,0,1,.7,3.491c-.016,1.546-.207,2.215-.59,2.614a13.406,13.406,0,0,1-1.961,1.594,27.982,27.982,0,0,1-3.745.366,24.119,24.119,0,0,1-.112,3.029,9.114,9.114,0,0,1-1.323,1.8L58.32,83.8l2.71-2.948-.08,7.667s.574,4.447.574,5.053a13.281,13.281,0,0,1-1.02,2.742s.893,2.327,1.227,3.475a30.261,30.261,0,0,1,.542,4.144s3.332-1.738,4.734-3.97a8.323,8.323,0,0,0,1.228-5.036c0-.878-.223-2.056-.287-3.81a48.813,48.813,0,0,1,1.4-8.671c.333-.92,1.5-4.688,1.513-4.733h0s1.18,3.809,1.514,4.734a48.813,48.813,0,0,1,1.4,8.671c-.065,1.753-.287,2.932-.287,3.81a8.331,8.331,0,0,0,1.227,5.036c1.4,2.232,4.735,3.969,4.735,3.969a30.56,30.56,0,0,1,.542-4.143c.335-1.148,1.227-3.476,1.227-3.476a13.272,13.272,0,0,1-1.02-2.741c0-.606.573-5.054.573-5.054l-.079-7.63a11.335,11.335,0,0,1,3.081,3.778,13.741,13.741,0,0,1,.311,7.029c-.5,2.009-1.89,5.691-2.535,8.082a17.33,17.33,0,0,0-.741,6.432,21.337,21.337,0,0,0,4.638,9.923c3.419,4.351,8.775,9.994,8.943,10.09s.5.216.645,0-.143-.526-.454-.813-4.5-4.4-5.906-7.245a23.528,23.528,0,0,1-2.534-9.922c-.024-3.491,1.386-7.771,2.223-10.354s2.152-6.743,2.152-10.257a19.108,19.108,0,0,0-3.18-10.4,13.859,13.859,0,0,0-5.045-4.423,20.7,20.7,0,0,1,2.941-.43,3.718,3.718,0,0,1,2.874,1.829c.543.741,2.984,6.635,3.845,8.787a43.339,43.339,0,0,0,6.408,9.325c1.913,1.937,6.623,6.552,9.636,7.7s8.464.742,10.377-.717,3.849-3.013,3.969-5.906a18.489,18.489,0,0,0-1.554-8.488c-1.22-2.654-2.344-4.041-2.893-4.424s-.765-.119-.742.048a20.19,20.19,0,0,1,1.818,4.256c.861,2.846,1.147,6.648-.861,8.56a7.429,7.429,0,0,1-6.958,1.291,22.935,22.935,0,0,1-5.8-4.782,59.116,59.116,0,0,1-6.486-9.038c-1.243-2.534-4.471-12.409-6.551-14.9-1.836-2.194-5.2-2.284-8.215-2.078l.061-.091s2.629-1.986,5.068-1.986,6.409,3.894,7.828,5.891c1.721,2.422,5.371,5.8,8.4,5.8,2.471,0,5.277-2.487,6.631-3.794,1.208-1.164,3.682-3.794,5.038-4.99a11.251,11.251,0,0,1,8.24-3.251A34,34,0,0,1,136.188,63.5c2.3.749,5.372,2.423,5.5,2.343S141.687,65.122,140.986,64.453Z"/><path class="cls-1" d="M57.85,92.877s-1.626,1.562-2.551,2.39S53,97.18,53,97.18a56.2,56.2,0,0,1,2.423,8.225,23.635,23.635,0,0,1-1.02,9.373A21.751,21.751,0,0,1,51.6,120.74a32.385,32.385,0,0,1-4.113,4.208c-.51.415-.6.765-.478.893a.953.953,0,0,0,.989-.192,51.416,51.416,0,0,0,4.405-4.622,69.679,69.679,0,0,0,6.434-9.15,14.553,14.553,0,0,0,1.881-9.373C60.241,98.774,57.85,92.877,57.85,92.877Z"/><path class="cls-1" d="M51.6,97.881s.7,2.041,1.052,3.507.8,4.177.8,4.177a19.14,19.14,0,0,1-4.654-.7,23.558,23.558,0,0,1-3.89-1.849s2.073-1.53,3.476-2.614S51.6,97.881,51.6,97.881Z"/><path class="cls-1" d="M45.193,94.869s-.919,1.131-2.032,2.41S40.6,99.954,40.6,99.954a3.713,3.713,0,0,1-.8-.574,4.39,4.39,0,0,1-.8-.925s1.435-1.371,2.328-2.3,2.3-2.614,2.3-2.614.382.382.8.765A3.719,3.719,0,0,0,45.193,94.869Z"/><path class="cls-1" d="M35.342,90.931s-2.231,3.028-3.73,5.26-2.9,4.432-2.9,4.432a11.745,11.745,0,0,1-5.962-1.53,8.732,8.732,0,0,1-3.73-7.651,21.087,21.087,0,0,1,2.614-7.684,18.306,18.306,0,0,1,2.2-3.252c.287-.254.446-.064.415.255s-.957,2.009-1.276,2.9a18.693,18.693,0,0,0-.988,5.579,6.2,6.2,0,0,0,2.2,4.718,6.279,6.279,0,0,0,4.846,1.084,9.144,9.144,0,0,0,3.7-1.817C33.653,92.493,35.342,90.931,35.342,90.931Z"/><path class="cls-1" d="M33.461,90.262s1.02-.989,1.881-1.945S37,86.564,37,86.564a14.171,14.171,0,0,1-2.551-5.26,23.758,23.758,0,0,1-.988-6.727s-1.148-.67-1.785-1.053a11.337,11.337,0,0,1-1.53-1.243,60.011,60.011,0,0,0,0,7.046,32.14,32.14,0,0,0,1.753,7.2C32.441,87.839,33.461,90.262,33.461,90.262Z"/><path class="cls-1" d="M33.318,62.167a2.862,2.862,0,0,0,.4.423,3.917,3.917,0,0,1,.51.582s.231-1.754.3-2.328a15.774,15.774,0,0,1,.319-1.6,3.375,3.375,0,0,0,.183-.741c-.048-.3-.382.087-.677.781C34.114,59.828,33.318,62.167,33.318,62.167Z"/><path class="cls-1" d="M48.843,72a3,3,0,0,1,.71-.177c.621-.119,1.61-.191,1.61-.335a11.918,11.918,0,0,1-.741-2.271,3.82,3.82,0,0,1,.525-2.75,3.575,3.575,0,0,1,1.961-1.722c.933-.263,3.635-.6,3.635-.6s-3.563-.1-4.615.358a7.344,7.344,0,0,0-2.893,2.224c-.67.933-1.483,2.415-1.483,2.415s.694,1.411.813,1.722S48.843,72,48.843,72Z"/></svg>