<svg id="Layer_1" data-name="Layer 1" xmlns="http://www.w3.org/2000/svg" viewBox="0 0 141.732 121.58"><defs><style>.cls-1{fill:#231f20;}</style></defs><polygon class="cls-1" points="19.878 119.73 0.774 119.73 0 121.072 19.878 121.072 19.878 119.73"/><polygon class="cls-1" points="13.171 117.045 10.982 113.255 8.794 117.045 13.171 117.045"/><path class="cls-1" d="M5.93,114.159a7.567,7.567,0,0,1-.873-.46l-.011.019c.2.21.412.444.61.69l.8.979-.132.23-1.194-.2a8.3,8.3,0,0,1-.947-.2l-.008.015c.255.147.549.341.848.539l.886.592-.187.324-2.068-1.444.225-.389,1.209.2a8.631,8.631,0,0,1,.9.18L6,115.22a8.084,8.084,0,0,1-.614-.668l-.79-.93.232-.4L7.1,114.3l-.194.338Z"/><path class="cls-1" d="M6.932,113.08l.53.588-.2.348L5.5,112.036l.23-.4,2.584.554-.206.357-.774-.166Zm.175-.768-.647-.154c-.182-.043-.387-.105-.571-.161l-.011.018c.144.134.3.289.425.415l.458.483Z"/><path class="cls-1" d="M8.668,111.582l-.921-.533-1.659-.032.22-.379.708.033c.2.009.418.023.627.05v-.009c-.13-.163-.249-.338-.368-.519l-.382-.577.219-.381.828,1.448.931.537Z"/><path class="cls-1" d="M7.924,107.838,10.1,109.1l-.209.361L7.716,108.2Z"/><path class="cls-1" d="M10.489,106.037l-.457.793.818.472.52-.9.216.126-.728,1.261L8.679,106.53l.7-1.2.216.125-.487.843.718.415.457-.792Z"/><path class="cls-1" d="M11.816,106.127l-2.178-1.258.2-.342,1.357.009c.309,0,.694.007.993.035l0-.009c-.359-.17-.648-.318-1.026-.536l-.779-.451.187-.323,2.179,1.258-.2.342-1.393-.005a7.112,7.112,0,0,1-.957-.052l-.006.009c.308.141.591.291,1.057.56l.753.435Z"/><path class="cls-1" d="M11.1,102.342l.208-.361,1.565.9c.488.282.475.656.212,1.111a1.073,1.073,0,0,1-.158.221l-.191-.154a1.034,1.034,0,0,0,.113-.166c.15-.258.165-.449-.181-.649Z"/><path class="cls-1" d="M13.646,100.406c.817.472.9,1.061.6,1.568-.3.525-.891.654-1.624.23s-.9-1.016-.576-1.57C12.36,100.1,12.954,100.005,13.646,100.406Zm-.8,1.425c.448.26.968.391,1.2-.008s-.178-.79-.6-1.036c-.407-.236-.951-.405-1.19.007-.234.394.145.782.589,1.037Z"/><path class="cls-1" d="M15.214,100.242l-.921-.533-1.658-.031.219-.38.709.034c.2.008.418.023.627.049l.005-.008c-.13-.164-.249-.339-.368-.519l-.383-.578.22-.38.828,1.448.93.537Z"/><path class="cls-1" d="M16.608,95.664a7.719,7.719,0,0,1-.872-.461l-.011.019c.2.211.411.444.61.69l.8.98L17,97.121l-1.193-.2a8.273,8.273,0,0,1-.948-.2l-.007.013c.255.148.548.343.847.54l.886.593-.186.323-2.071-1.444.225-.39,1.209.2a8.666,8.666,0,0,1,.9.18l.007-.014a8.389,8.389,0,0,1-.614-.667l-.79-.931.233-.4L17.778,95.8l-.194.338Z"/><path class="cls-1" d="M18.306,94.887l-.921-.532-1.658-.033.219-.379.709.034c.2.008.418.022.627.049l0-.009c-.13-.163-.249-.338-.369-.519l-.382-.577.219-.38.829,1.447.931.537Z"/><path class="cls-1" d="M17.354,91.5l.209-.361,1.968,1.137.514-.891.211.121-.723,1.252Z"/><path class="cls-1" d="M18.494,89.53l2.178,1.258-.208.361-2.179-1.258Z"/><path class="cls-1" d="M18.824,88.958l.7-1.2.216.125-.487.843.763.442.455-.788.21.121-.455.788.989.571-.208.361Z"/><path class="cls-1" d="M21.568,86.848l-.457.791.818.472.519-.9.217.125-.728,1.26L19.754,87.34l.7-1.2.216.125-.487.844.718.414.457-.791Z"/><path class="cls-1" d="M22.887,85.445l.531.588-.2.346L21.454,84.4l.23-.4,2.585.554-.206.356-.775-.166Zm.176-.767-.647-.155c-.183-.043-.388-.106-.572-.162l-.01.019c.143.133.3.288.424.414l.458.484Z"/><path class="cls-1" d="M24.5,84.162,22.32,82.9l.2-.342,1.358.008c.308,0,.693.007.992.035v-.01c-.358-.169-.648-.317-1.026-.535l-.78-.45.187-.324L25.43,82.54l-.2.342H23.836a7.467,7.467,0,0,1-.957-.052v.009c.361.169.714.356,1.056.56l.753.434Z"/><path class="cls-1" d="M23.611,80.742a2.777,2.777,0,0,1,.24-.512,1.6,1.6,0,0,1,.592-.646,1.1,1.1,0,0,1,1.129.083,1.225,1.225,0,0,1,.7.91A1.625,1.625,0,0,1,26,81.586a3.732,3.732,0,0,1-.255.39Zm2.151.76a1.141,1.141,0,0,0,.085-.132c.23-.4.255-.9-.486-1.324-.549-.317-.99-.247-1.282.259a1.056,1.056,0,0,0-.085.176Z"/><path class="cls-1" d="M25.241,77.918a3.492,3.492,0,0,1,.261-.549,1.44,1.44,0,0,1,.565-.605.6.6,0,0,1,.584.026.641.641,0,0,1,.336.449,1.305,1.305,0,0,1-.188.885,1.214,1.214,0,0,1-.1.157l.892.515-.209.361Zm1.252.242a1.019,1.019,0,0,0,.091-.134c.206-.357.182-.689-.125-.866-.223-.129-.5-.109-.731.29a1.262,1.262,0,0,0-.1.21Z"/><path class="cls-1" d="M26.321,76.047a3.39,3.39,0,0,1,.259-.544,1.477,1.477,0,0,1,.566-.624.572.572,0,0,1,.554.027.688.688,0,0,1,.267.829h.007a.64.64,0,0,1,.734-.144,2.726,2.726,0,0,0,.655.141l-.209.368a2.4,2.4,0,0,1-.637-.142.519.519,0,0,0-.693.245l-.015.033-.081.141.95.548-.208.362Zm1.214.22.087-.15c.2-.347.158-.678-.1-.828s-.494-.086-.722.3a1.132,1.132,0,0,0-.1.2Z"/><path class="cls-1" d="M29.154,74.584l.532.588-.2.347-1.761-1.98.229-.4,2.585.554-.206.357-.774-.166Zm.176-.768-.647-.155c-.183-.041-.388-.1-.571-.16l-.011.018c.143.133.3.288.425.415l.457.483Z"/><path class="cls-1" d="M31.472,71.994a1.651,1.651,0,0,1-.2.483,1.128,1.128,0,0,1-1.495.554,1.251,1.251,0,0,1-.69-1.89,1.245,1.245,0,0,1,.283-.362l.164.2a1.089,1.089,0,0,0-.23.293c-.195.337-.2.862.47,1.246s1.091.155,1.313-.229a1.269,1.269,0,0,0,.144-.361Z"/><path class="cls-1" d="M30.007,70.1l-.333.577-.223-.13.874-1.514.223.13-.333.576,1.956,1.129-.209.361Z"/><path class="cls-1" d="M30.737,68.324l2.179,1.258-.209.361-2.178-1.258Z"/><path class="cls-1" d="M34,67.609a1.6,1.6,0,0,1-.2.483,1.125,1.125,0,0,1-1.694.435,1.216,1.216,0,0,1-.577-1.619,1.25,1.25,0,0,1,.086-.151,1.277,1.277,0,0,1,.282-.363l.165.2a1.105,1.105,0,0,0-.229.293c-.2.338-.2.861.469,1.246s1.092.156,1.314-.228a1.284,1.284,0,0,0,.143-.362Z"/><path class="cls-1" d="M33.887,65.51l-.457.793.818.472.519-.9.217.125-.73,1.261L32.077,66l.7-1.2.216.125-.487.844.718.415.457-.793Z"/><path class="cls-1" d="M35.806,62.411a7.805,7.805,0,0,1-.872-.461l-.011.019c.2.211.412.444.611.69l.8.979-.133.23-1.193-.2a8.256,8.256,0,0,1-.947-.2l-.008.014c.256.148.548.343.849.541l.885.592-.187.324L33.526,63.5l.225-.39,1.209.2a8.9,8.9,0,0,1,.9.179l.008-.013a8.817,8.817,0,0,1-.614-.668l-.79-.931.232-.4,2.285,1.075-.2.338Z"/><path class="cls-1" d="M37.505,61.634l-.921-.534-1.659-.032.22-.379.709.034c.2.008.417.023.627.049v-.009c-.129-.163-.248-.337-.368-.519l-.382-.577.219-.38.828,1.447.931.538Z"/><path class="cls-1" d="M38.3,58.752l.531.589-.2.346-1.761-1.979.23-.4,2.584.555-.2.356-.775-.166Zm.176-.767-.648-.155c-.182-.043-.387-.1-.571-.161l-.011.019c.144.133.3.288.425.414l.458.483Z"/><path class="cls-1" d="M37.763,56.23a3.39,3.39,0,0,1,.259-.544,1.472,1.472,0,0,1,.566-.624.575.575,0,0,1,.554.026.691.691,0,0,1,.267.829h.006a.64.64,0,0,1,.734-.145,2.631,2.631,0,0,0,.656.141l-.211.366a2.441,2.441,0,0,1-.637-.143.521.521,0,0,0-.694.247l-.014.032-.081.141.949.548-.208.361Zm1.214.22.087-.151c.2-.346.158-.677-.1-.828s-.494-.085-.722.3a1.111,1.111,0,0,0-.095.2Z"/><path class="cls-1" d="M39.245,54.1l-.333.576-.223-.129.874-1.514.224.129-.334.576,1.956,1.13-.208.361Z"/><polygon class="cls-1" points="72.785 3.791 70.596 0 68.407 3.791 72.785 3.791"/><rect class="cls-1" x="67.183" y="7.294" width="0.234" height="3.052" transform="translate(43.713 72.466) rotate(-77.131)"/><polygon class="cls-1" points="58.6 26.874 55.626 26.193 55.677 25.966 58.652 26.646 58.6 26.874"/><rect class="cls-1" x="57.586" y="23.915" width="0.234" height="3.052" transform="translate(20.047 76.028) rotate(-77.129)"/><rect class="cls-1" x="58.151" y="22.938" width="0.234" height="3.052" transform="translate(21.431 75.812) rotate(-77.12)"/><polygon class="cls-1" points="60.294 23.94 57.319 23.26 57.371 23.032 60.345 23.712 60.294 23.94"/><polygon class="cls-1" points="60.858 22.962 57.883 22.282 57.935 22.055 60.91 22.735 60.858 22.962"/><rect class="cls-1" x="59.845" y="20.004" width="0.234" height="3.052" transform="translate(25.616 75.189) rotate(-77.129)"/><rect class="cls-1" x="60.409" y="19.027" width="0.234" height="3.052" transform="translate(26.998 74.974) rotate(-77.12)"/><polygon class="cls-1" points="62.552 20.029 59.577 19.349 59.628 19.121 62.604 19.801 62.552 20.029"/><rect class="cls-1" x="61.539" y="17.072" width="0.233" height="3.052" transform="translate(29.782 74.556) rotate(-77.12)"/><polygon class="cls-1" points="63.681 18.073 60.706 17.394 60.757 17.166 63.732 17.846 63.681 18.073"/><polygon class="cls-1" points="64.246 17.096 61.271 16.416 61.322 16.188 64.297 16.868 64.246 17.096"/><rect class="cls-1" x="63.231" y="14.139" width="0.234" height="3.051" transform="translate(33.955 73.926) rotate(-77.118)"/><rect class="cls-1" x="63.797" y="13.161" width="0.233" height="3.052" transform="translate(35.349 73.718) rotate(-77.12)"/><polygon class="cls-1" points="65.939 14.162 62.964 13.483 63.016 13.255 65.991 13.934 65.939 14.162"/><rect class="cls-1" x="64.925" y="11.205" width="0.233" height="3.052" transform="translate(38.142 73.302) rotate(-77.129)"/><rect class="cls-1" x="65.49" y="10.226" width="0.234" height="3.053" transform="translate(39.527 73.09) rotate(-77.122)"/><rect class="cls-1" x="66.054" y="9.249" width="0.234" height="3.052" transform="translate(40.921 72.881) rotate(-77.124)"/><rect class="cls-1" x="66.619" y="8.27" width="0.234" height="3.053" transform="translate(42.314 72.671) rotate(-77.124)"/><polygon class="cls-1" points="73.177 9.274 76.152 8.594 76.101 8.366 73.125 9.045 73.177 9.274"/><rect class="cls-1" x="83.275" y="26.303" width="3.051" height="0.233" transform="translate(-3.756 19.571) rotate(-12.882)"/><polygon class="cls-1" points="82.774 25.895 85.749 25.216 85.698 24.988 82.723 25.668 82.774 25.895"/><polygon class="cls-1" points="82.21 24.918 85.185 24.238 85.133 24.01 82.158 24.69 82.21 24.918"/><polygon class="cls-1" points="81.645 23.94 84.62 23.26 84.568 23.032 81.593 23.712 81.645 23.94"/><rect class="cls-1" x="81.017" y="22.392" width="3.052" height="0.233" transform="translate(-2.94 18.963) rotate(-12.878)"/><polygon class="cls-1" points="80.517 21.984 83.491 21.305 83.439 21.077 80.464 21.757 80.517 21.984"/><rect class="cls-1" x="79.888" y="20.436" width="3.051" height="0.234" transform="translate(-2.533 18.668) rotate(-12.882)"/><polygon class="cls-1" points="79.387 20.029 82.362 19.349 82.311 19.121 79.336 19.801 79.387 20.029"/><rect class="cls-1" x="78.758" y="18.481" width="3.052" height="0.233" transform="translate(-2.126 18.361) rotate(-12.878)"/><polygon class="cls-1" points="78.258 18.073 81.233 17.394 81.181 17.166 78.206 17.846 78.258 18.073"/><rect class="cls-1" x="77.629" y="16.526" width="3.052" height="0.234" transform="translate(-1.718 18.058) rotate(-12.876)"/><polygon class="cls-1" points="77.129 16.118 80.104 15.438 80.052 15.21 77.078 15.89 77.129 16.118"/><polygon class="cls-1" points="76.565 15.14 79.539 14.46 79.488 14.233 76.513 14.913 76.565 15.14"/><rect class="cls-1" x="75.936" y="13.592" width="3.052" height="0.234" transform="translate(-1.108 17.594) rotate(-12.867)"/><rect class="cls-1" x="75.371" y="12.614" width="3.052" height="0.233" transform="translate(-0.904 17.449) rotate(-12.871)"/><rect class="cls-1" x="74.806" y="11.636" width="3.053" height="0.234" transform="translate(-0.7 17.303) rotate(-12.874)"/><rect class="cls-1" x="74.241" y="10.658" width="3.052" height="0.234" transform="translate(-0.496 17.151) rotate(-12.873)"/><rect class="cls-1" x="73.689" y="9.668" width="3.054" height="0.234" transform="translate(-0.288 17.017) rotate(-12.883)"/><polygon class="cls-1" points="121.853 119.73 140.957 119.73 141.732 121.072 121.853 121.072 121.853 119.73"/><polygon class="cls-1" points="128.561 117.045 130.749 113.255 132.938 117.045 128.561 117.045"/><path class="cls-1" d="M101.9,53.255a3.392,3.392,0,0,1,.35.491,1.467,1.467,0,0,1,.269.8.573.573,0,0,1-.293.471.688.688,0,0,1-.853-.17h-.006a.637.637,0,0,1-.232.712,2.593,2.593,0,0,0-.441.5l-.217-.362a2.377,2.377,0,0,1,.435-.488.521.521,0,0,0,.12-.727l-.02-.026-.084-.14-.941.563-.215-.357Zm-.782.953.089.15c.2.343.515.467.774.312s.314-.39.087-.777a1.216,1.216,0,0,0-.124-.179Z"/><path class="cls-1" d="M102.62,56.958l-.47-.786-.81.486.534.891-.215.128-.747-1.249,2.159-1.292.714,1.194-.215.128-.5-.835-.713.425.471.785Z"/><path class="cls-1" d="M102.139,57.833a1.422,1.422,0,0,0,.183.5c.194.326.459.432.677.3.2-.119.22-.359.2-.682s-.033-.782.245-.948c.328-.2.765-.009,1.061.488a1.288,1.288,0,0,1,.185.489l-.265.039a.986.986,0,0,0-.148-.416c-.184-.308-.43-.356-.576-.267-.216.128-.2.34-.171.725.042.486-.055.772-.3.916-.372.222-.834-.019-1.132-.515a1.719,1.719,0,0,1-.223-.586Z"/><path class="cls-1" d="M105.025,58.478a3.448,3.448,0,0,1,.353.495,1.429,1.429,0,0,1,.254.789.6.6,0,0,1-.306.5.643.643,0,0,1-.556.072,1.286,1.286,0,0,1-.682-.594c-.035-.061-.064-.107-.091-.16l-.884.529-.214-.358Zm-.82.977a1.1,1.1,0,0,0,.074.145c.212.353.513.494.817.312.221-.132.34-.386.1-.78a1.439,1.439,0,0,0-.135-.192Z"/><path class="cls-1" d="M105.717,62.134l-.47-.785-.81.484.533.893-.214.129-.748-1.25,2.159-1.291.714,1.193-.214.129-.5-.838-.711.426.469.786Z"/><path class="cls-1" d="M105.847,64.592a1.639,1.639,0,0,1-.324-.412,1.125,1.125,0,0,1,.444-1.691,1.215,1.215,0,0,1,1.7.283,2.234,2.234,0,0,1,.271.572l-.255.047a1.132,1.132,0,0,0-.144-.344.879.879,0,0,0-1.211-.278.751.751,0,0,0-.107.078c-.661.4-.666.878-.44,1.259a1.3,1.3,0,0,0,.247.3Z"/><path class="cls-1" d="M108.211,64.232l-.341-.571.22-.133.9,1.5-.221.132-.342-.572-1.938,1.16-.214-.358Z"/><path class="cls-1" d="M108.747,67.2l-.471-.785-.809.484.534.893-.216.127-.747-1.249,2.159-1.292.714,1.2-.215.128-.5-.836-.712.426.47.785Z"/><path class="cls-1" d="M110.154,67.042a2.876,2.876,0,0,1,.331.459,1.6,1.6,0,0,1,.275.831,1.106,1.106,0,0,1-.621.946,1.22,1.22,0,0,1-1.135.167,1.607,1.607,0,0,1-.75-.723,3.769,3.769,0,0,1-.218-.412Zm-1.711,1.509a1.027,1.027,0,0,0,.074.139c.236.394.66.659,1.393.22.544-.325.7-.745.4-1.247a1.053,1.053,0,0,0-.112-.161Z"/><path class="cls-1" d="M111.822,69.839a3.81,3.81,0,0,1,.356.5,1.485,1.485,0,0,1,.263.783.5.5,0,0,1-.245.425.638.638,0,0,1-.77-.2h-.007a.7.7,0,0,1-.2.911.616.616,0,0,1-.563.032,1.608,1.608,0,0,1-.69-.709,4.384,4.384,0,0,1-.258-.483Zm-.669.888.1.162c.176.292.48.451.708.315.2-.118.271-.345.042-.726a1.1,1.1,0,0,0-.129-.181Zm-1.048.626a1.518,1.518,0,0,0,.095.189c.223.372.517.523.8.356.3-.179.257-.565.061-.9l-.1-.158Z"/><path class="cls-1" d="M111.1,73.462l.913-.545.835-1.433.225.376-.376.6c-.1.169-.222.354-.347.523v.01c.207-.035.416-.054.633-.07l.691-.053.225.376-1.667.02-.923.551Z"/><path class="cls-1" d="M113.234,75.557l-.773.179-.206-.345,2.588-.576.236.4L113.337,77.2l-.212-.354.523-.6Zm.584.527.451-.49c.126-.138.28-.287.418-.42l-.011-.019c-.186.061-.4.125-.569.17l-.646.165Z"/><path class="cls-1" d="M115.729,76.3l.214.358-1.95,1.167.527.883-.207.125-.743-1.24Z"/><path class="cls-1" d="M116.686,77.9l.214.359-1.946,1.162.529.882-.209.125-.743-1.24Z"/><path class="cls-1" d="M117.982,82.856a8.2,8.2,0,0,1,.827-.539L118.8,82.3c-.282.074-.588.144-.9.2l-1.243.22-.136-.228.751-.948a8.178,8.178,0,0,1,.638-.729L117.9,80.8c-.253.152-.565.314-.884.478l-.949.487-.191-.321,2.269-1.106.231.386-.768.957a8.322,8.322,0,0,1-.592.7l.008.014c.283-.086.53-.139.882-.212l1.2-.237.239.4-2.05,1.473-.2-.336Z"/><path class="cls-1" d="M119.293,84.829l-.469-.785-.811.485.534.892-.215.128-.747-1.25,2.159-1.291.71,1.192-.215.129-.5-.836-.713.424.47.786Z"/><path class="cls-1" d="M118.569,85.945l2.159-1.292.2.339-.669,1.182c-.152.268-.344.6-.513.85v.009c.323-.231.594-.412.969-.635l.771-.462.193.32-2.16,1.292-.2-.339L120,85.993a6.949,6.949,0,0,1,.512-.81l-.006-.01a11.727,11.727,0,0,1-1,.651l-.746.446Z"/><path class="cls-1" d="M121.17,88.824,120.4,89l-.2-.343,2.587-.576.237.393-1.743,1.989-.211-.352.522-.6Zm.585.528.45-.491c.126-.139.28-.288.419-.421l-.012-.019c-.185.06-.4.126-.568.171l-.645.164Z"/><path class="cls-1" d="M121.507,90.856l2.159-1.291.2.339-.667,1.182c-.153.268-.344.6-.513.849v.009c.323-.23.593-.411.968-.635l.773-.461.191.319-2.159,1.291-.2-.337.682-1.217a7.65,7.65,0,0,1,.51-.81v-.01a11.727,11.727,0,0,1-1,.651l-.746.446Z"/><path class="cls-1" d="M124.927,91.745a2.8,2.8,0,0,1,.33.458,1.606,1.606,0,0,1,.276.832,1.1,1.1,0,0,1-.622.945,1.226,1.226,0,0,1-1.135.169,1.624,1.624,0,0,1-.75-.724,3.61,3.61,0,0,1-.217-.413Zm-1.712,1.508a1.033,1.033,0,0,0,.075.139c.236.4.659.659,1.392.221.545-.326.7-.746.4-1.247a1.053,1.053,0,0,0-.112-.161Z"/><path class="cls-1" d="M126.846,94.881l-2.159,1.291-.214-.358,2.159-1.291Z"/><path class="cls-1" d="M125.026,96.739l2.159-1.292.2.341-.668,1.18c-.153.269-.343.6-.513.85l.006.01c.322-.231.592-.411.968-.636l.771-.462.192.32-2.159,1.292-.2-.339.683-1.215a7.268,7.268,0,0,1,.511-.811l-.006-.009q-.483.349-1,.65l-.746.447Z"/><path class="cls-1" d="M127.627,99.619l-.772.178-.2-.343,2.586-.577.237.4-1.742,1.989-.211-.354.521-.6Zm.585.526.45-.489c.127-.138.281-.288.419-.421l-.011-.019c-.186.061-.4.126-.568.17l-.646.165Z"/><path class="cls-1" d="M130.124,100.36l.213.358-1.95,1.167.528.882-.208.124-.742-1.239Z"/><path class="cls-1" d="M131.08,101.958l.213.357-1.95,1.168.528.883-.208.124-.742-1.24Z"/><path class="cls-1" d="M132.374,104.623l-.342-.572.22-.132.9,1.5-.22.132-.343-.572-1.937,1.159-.214-.356Z"/><path class="cls-1" d="M133.574,106.127l-2.159,1.29-.215-.357,2.159-1.291Z"/><path class="cls-1" d="M133.816,109.324a7.844,7.844,0,0,1,.826-.538l-.011-.019c-.281.075-.588.145-.9.2l-1.243.219-.136-.227.75-.948a8.189,8.189,0,0,1,.639-.729l-.008-.015c-.253.152-.565.314-.884.48l-.95.485-.191-.32,2.27-1.106.23.385-.767.958a8.587,8.587,0,0,1-.592.7l.008.014a8.91,8.91,0,0,1,.882-.212l1.2-.237.237.4-2.05,1.471-.2-.334Z"/><path class="cls-1" d="M135.127,111.3l-.469-.785-.811.485.534.892-.215.128-.748-1.25,2.16-1.292.714,1.194-.215.129-.5-.837-.711.427.469.784Z"/><path class="cls-1" d="M134.646,112.172a1.422,1.422,0,0,0,.183.5c.2.326.459.433.676.3.2-.118.221-.359.2-.682s-.032-.781.246-.948c.327-.195.764-.009,1.063.489a1.32,1.32,0,0,1,.183.488l-.264.038a1.049,1.049,0,0,0-.148-.416c-.183-.306-.43-.354-.577-.266-.216.129-.2.341-.171.727.043.486-.057.771-.3.915-.371.221-.833-.019-1.131-.516a1.668,1.668,0,0,1-.224-.585Z"/><polygon class="cls-1" points="136.922 117.033 139.897 116.353 139.846 116.124 136.871 116.805 136.922 117.033"/><polygon class="cls-1" points="136.357 116.055 139.332 115.375 139.281 115.147 136.306 115.827 136.357 116.055"/><rect class="cls-1" x="135.728" y="114.506" width="3.052" height="0.234" transform="translate(-22.094 33.474) rotate(-12.878)"/><rect class="cls-1" x="135.164" y="113.53" width="3.052" height="0.234" transform="translate(-21.888 33.318) rotate(-12.876)"/><path class="cls-1" d="M32.806,115.467h4.883v-3.006c0-.249-.006-.45-.016-.605a1.906,1.906,0,0,0-.058-.383.554.554,0,0,0-.128-.24.924.924,0,0,0-.225-.168,1.45,1.45,0,0,0-.7-.186h-.372v-.286h4.5l-.008.286h-.372a1.7,1.7,0,0,0-.31.031,1.305,1.305,0,0,0-.31.1,1.011,1.011,0,0,0-.26.174.656.656,0,0,0-.166.252,3.866,3.866,0,0,0-.086,1.023v6.781c0,.248.006.449.016.6a1.916,1.916,0,0,0,.058.384.543.543,0,0,0,.124.236.88.88,0,0,0,.221.162,1.436,1.436,0,0,0,.713.187h.372v.287h-4.5v-.287h.377a1.126,1.126,0,0,0,.938-.38,2.257,2.257,0,0,0,.194-1.193v-3.2h-4.88v3.2q0,.372.016.6a1.81,1.81,0,0,0,.058.38.562.562,0,0,0,.128.236.869.869,0,0,0,.224.166,1.431,1.431,0,0,0,.706.187h.379v.287h-4.5v-.287h.372a1.11,1.11,0,0,0,.945-.38,2.326,2.326,0,0,0,.186-1.193v-6.781c0-.249,0-.45-.015-.6a1.98,1.98,0,0,0-.058-.383.586.586,0,0,0-.124-.24.885.885,0,0,0-.221-.168,1.481,1.481,0,0,0-.713-.186h-.372v-.286h4.5v.286h-.379a1.741,1.741,0,0,0-.314.031,1.217,1.217,0,0,0-.3.1,1.016,1.016,0,0,0-.256.174.648.648,0,0,0-.167.252,3.522,3.522,0,0,0-.093,1.023Z"/><path class="cls-1" d="M46.6,110.593a4.767,4.767,0,0,1,3.542,1.557,5.347,5.347,0,0,1,1.5,3.875A5.523,5.523,0,0,1,50.13,120a5.056,5.056,0,0,1-7.149.195c-.054-.051-.107-.1-.159-.157a5.54,5.54,0,0,1-1.472-3.991,5.315,5.315,0,0,1,1.7-4.085A5.03,5.03,0,0,1,46.6,110.593Zm-.147.565a2.907,2.907,0,0,0-1.418.341,2.983,2.983,0,0,0-1.043.973A4.8,4.8,0,0,0,43.345,114a8.433,8.433,0,0,0-.22,2.015,8.882,8.882,0,0,0,.216,2.03,5.108,5.108,0,0,0,.64,1.585,3.119,3.119,0,0,0,1.042,1.03,2.741,2.741,0,0,0,1.434.369,3.264,3.264,0,0,0,1.352-.28,2.829,2.829,0,0,0,1.081-.864,4.321,4.321,0,0,0,.717-1.492,7.915,7.915,0,0,0,.259-2.161,9.779,9.779,0,0,0-.213-2.144,4.789,4.789,0,0,0-.643-1.592,2.964,2.964,0,0,0-1.069-1,3.108,3.108,0,0,0-1.487-.338Z"/><path class="cls-1" d="M51.28,121.1v-.287h.395a1.057,1.057,0,0,0,.945-.426,2.394,2.394,0,0,0,.171-1.147v-6.789a2.147,2.147,0,0,0-.217-1.233,1.139,1.139,0,0,0-.9-.341h-.395v-.286h4.275a9.318,9.318,0,0,1,3.58.534,4.24,4.24,0,0,1,1.976,1.783,5.451,5.451,0,0,1,.752,2.882,5.923,5.923,0,0,1-.376,2.14,4.514,4.514,0,0,1-1.116,1.678,5.185,5.185,0,0,1-1.844,1.1,7.561,7.561,0,0,1-2.553.4Zm3-.76a7.784,7.784,0,0,0,1.651.217,4.145,4.145,0,0,0,1.655-.329,3.843,3.843,0,0,0,1.321-.938,4.394,4.394,0,0,0,.875-1.476,5.63,5.63,0,0,0,.318-1.946,5.694,5.694,0,0,0-.314-1.953,4.3,4.3,0,0,0-.875-1.476,3.824,3.824,0,0,0-1.341-.934,4.38,4.38,0,0,0-1.7-.325,5.008,5.008,0,0,0-.744.058c-.264.039-.545.094-.845.166Z"/><path class="cls-1" d="M80.271,120.815v.287h-4.5v-.287h.372a1.11,1.11,0,0,0,.946-.38,2.326,2.326,0,0,0,.186-1.193v-6.789c0-.248,0-.45-.016-.6a1.915,1.915,0,0,0-.057-.384.577.577,0,0,0-.124-.236.919.919,0,0,0-.222-.164,1.459,1.459,0,0,0-.713-.186h-.372V110.6h4.5v.286H79.89a1.1,1.1,0,0,0-.937.381,2.236,2.236,0,0,0-.194,1.193v6.789q0,.372.015.6a1.811,1.811,0,0,0,.059.38.56.56,0,0,0,.127.236.879.879,0,0,0,.226.166,1.419,1.419,0,0,0,.7.187Z"/><path class="cls-1" d="M98.441,110.593h2.852l7.191,7.881v-6.06a2.09,2.09,0,0,0-.216-1.209,1.172,1.172,0,0,0-.908-.326H107v-.286h3.657v.286h-.372a1.066,1.066,0,0,0-.945.4,2.32,2.32,0,0,0-.17,1.132v8.859h-.28l-7.7-8.463v6.47a2.149,2.149,0,0,0,.21,1.209,1.153,1.153,0,0,0,.907.326h.371v.287H99.022v-.287h.364a1.077,1.077,0,0,0,.953-.4,2.32,2.32,0,0,0,.17-1.132v-7.307c-.154-.182-.283-.326-.387-.434a2.486,2.486,0,0,0-.294-.268,1.365,1.365,0,0,0-.3-.17c-.108-.045-.244-.095-.4-.151a2.484,2.484,0,0,0-.682-.071Z"/><path class="cls-1" d="M110.383,121.1v-.287h.4a1.06,1.06,0,0,0,.946-.426,2.406,2.406,0,0,0,.171-1.147v-6.789a2.154,2.154,0,0,0-.218-1.233,1.139,1.139,0,0,0-.9-.341h-.395v-.286h4.278a9.318,9.318,0,0,1,3.58.534,4.247,4.247,0,0,1,1.977,1.783,5.471,5.471,0,0,1,.751,2.882,5.9,5.9,0,0,1-.376,2.14,4.514,4.514,0,0,1-1.116,1.678,5.171,5.171,0,0,1-1.844,1.1,7.566,7.566,0,0,1-2.554.4Zm3-.76a7.784,7.784,0,0,0,1.651.217,4.145,4.145,0,0,0,1.655-.329,3.829,3.829,0,0,0,1.32-.938,4.416,4.416,0,0,0,.877-1.476,6.179,6.179,0,0,0,0-3.9,4.3,4.3,0,0,0-.875-1.476,3.824,3.824,0,0,0-1.341-.934,4.38,4.38,0,0,0-1.7-.325,5.008,5.008,0,0,0-.744.058c-.267.039-.548.094-.845.166Z"/><path class="cls-1" d="M64.109,111.167v4.153h1.732a1.755,1.755,0,0,0,.614-.089.764.764,0,0,0,.369-.279,1.193,1.193,0,0,0,.186-.477,5.036,5.036,0,0,0,.07-.682H67.3v3.658H67.08c-.027-.258-.055-.468-.081-.631a2.032,2.032,0,0,0-.082-.353.948.948,0,0,0-.133-.244.8.8,0,0,0-.21-.182,1.035,1.035,0,0,0-.308-.116,2.02,2.02,0,0,0-.425-.039H64.109v3.464a4.427,4.427,0,0,0,.047.853.726.726,0,0,0,.058.131.3.3,0,0,0,.1.1.524.524,0,0,0,.174.065,1.222,1.222,0,0,0,.27.024H66.1a4.967,4.967,0,0,0,.572-.027,1.662,1.662,0,0,0,.4-.093.961.961,0,0,0,.3-.186,2.667,2.667,0,0,0,.276-.306,3.911,3.911,0,0,0,.366-.6,9.064,9.064,0,0,0,.371-.852h.233l-.68,2.635H61.866v-.287h.279a.913.913,0,0,0,.232-.031.738.738,0,0,0,.23-.1.852.852,0,0,0,.2-.174.624.624,0,0,0,.122-.244,4.613,4.613,0,0,0,.07-1.016v-6.827a2.961,2.961,0,0,0-.151-1.232.78.78,0,0,0-.7-.311h-.279v-.286h6.074v2.3H67.8c-.042-.279-.085-.508-.128-.689a2.456,2.456,0,0,0-.144-.45.967.967,0,0,0-.186-.282,1.255,1.255,0,0,0-.25-.191,2.061,2.061,0,0,0-.82-.115Z"/><path class="cls-1" d="M73.223,110.593v3.634h-.216a5.6,5.6,0,0,0-.377-1.665,2.406,2.406,0,0,0-.771-.981,1.954,1.954,0,0,0-.5-.271,1.518,1.518,0,0,0-.533-.1,1.167,1.167,0,0,0-.552.135,1.491,1.491,0,0,0-.444.361,1.66,1.66,0,0,0-.294.515,1.775,1.775,0,0,0-.105.6,1.751,1.751,0,0,0,.152.755,2.152,2.152,0,0,0,.416.593,4.6,4.6,0,0,0,.621.528q.357.255.777.549.469.335.895.651a4.63,4.63,0,0,1,.747.7,3.115,3.115,0,0,1,.514.876,3.232,3.232,0,0,1,.192,1.181,3.415,3.415,0,0,1-.183,1.12,2.974,2.974,0,0,1-.512.929,2.444,2.444,0,0,1-.785.636,2.144,2.144,0,0,1-1,.237c-.136,0-.252,0-.349-.008a1.865,1.865,0,0,1-.279-.034,1.586,1.586,0,0,1-.277-.086c-.094-.038-.207-.092-.339-.159-.094-.046-.188-.089-.285-.128s-.186-.071-.267-.1-.151-.047-.207-.062a.5.5,0,0,0-.108-.024.268.268,0,0,0-.229.117,1.119,1.119,0,0,0-.125.48h-.214v-3.6H68.8a10.022,10.022,0,0,0,.178.988,4.111,4.111,0,0,0,.229.71,2.215,2.215,0,0,0,.331.518A2.31,2.31,0,0,0,70,120.6a2.109,2.109,0,0,0,.546.271,1.911,1.911,0,0,0,.6.1,1.483,1.483,0,0,0,1.151-.516,1.694,1.694,0,0,0,.311-.55,2.222,2.222,0,0,0-.05-1.5,2.186,2.186,0,0,0-.421-.617,4.482,4.482,0,0,0-.616-.518q-.353-.249-.742-.559c-.294-.232-.578-.454-.851-.662a4.553,4.553,0,0,1-.724-.691,3.052,3.052,0,0,1-.5-.856,3.154,3.154,0,0,1-.188-1.147,3.216,3.216,0,0,1,.174-1.061,2.878,2.878,0,0,1,.482-.883,2.3,2.3,0,0,1,.73-.6,1.929,1.929,0,0,1,.921-.221,2.714,2.714,0,0,1,1.332.41,1.045,1.045,0,0,0,.458.195.3.3,0,0,0,.248-.121,1.151,1.151,0,0,0,.153-.484Z"/><path class="cls-1" d="M85.564,110.593v3.634h-.21a5.573,5.573,0,0,0-.378-1.665,2.382,2.382,0,0,0-.77-.981,1.985,1.985,0,0,0-.5-.271,1.512,1.512,0,0,0-.532-.1,1.167,1.167,0,0,0-.552.135,1.491,1.491,0,0,0-.444.361,1.648,1.648,0,0,0-.294.515,1.883,1.883,0,0,0,.047,1.356,2.149,2.149,0,0,0,.415.593,4.744,4.744,0,0,0,.622.528q.358.255.776.549.471.335.895.651a4.464,4.464,0,0,1,.747.7,3.094,3.094,0,0,1,.515.876,3.277,3.277,0,0,1,.191,1.181,3.411,3.411,0,0,1-.183,1.12,2.962,2.962,0,0,1-.511.929,2.455,2.455,0,0,1-.785.636,2.144,2.144,0,0,1-1,.237c-.136,0-.252,0-.35-.008a1.865,1.865,0,0,1-.279-.034,1.565,1.565,0,0,1-.275-.086,3.554,3.554,0,0,1-.34-.159c-.093-.046-.188-.089-.285-.128s-.186-.071-.268-.1-.15-.047-.206-.062a.5.5,0,0,0-.107-.024.267.267,0,0,0-.23.117,1.119,1.119,0,0,0-.125.48h-.215v-3.6h.215a9.733,9.733,0,0,0,.177.988,4.114,4.114,0,0,0,.23.71,2.236,2.236,0,0,0,.331.518,2.3,2.3,0,0,0,.456.415,2.141,2.141,0,0,0,.546.271,1.911,1.911,0,0,0,.6.1,1.481,1.481,0,0,0,1.151-.516,1.639,1.639,0,0,0,.311-.55,2,2,0,0,0,.107-.655,2.035,2.035,0,0,0-.156-.848,2.189,2.189,0,0,0-.422-.617,4.424,4.424,0,0,0-.616-.518q-.351-.249-.741-.559c-.3-.232-.578-.454-.851-.662a4.553,4.553,0,0,1-.724-.691,3.052,3.052,0,0,1-.5-.856,3.134,3.134,0,0,1-.189-1.147,3.246,3.246,0,0,1,.174-1.061,2.881,2.881,0,0,1,.483-.883,2.3,2.3,0,0,1,.73-.6,1.953,1.953,0,0,1,.921-.221A2.707,2.707,0,0,1,84.5,111a1.048,1.048,0,0,0,.459.195.3.3,0,0,0,.247-.121,1.12,1.12,0,0,0,.154-.484Z"/><path class="cls-1" d="M92.672,118.2l.332.055-.674,2.852H86.087v-.287h.3a.745.745,0,0,0,.715-.435,3.2,3.2,0,0,0,.122-1.147v-6.78a2.768,2.768,0,0,0-.162-1.233.756.756,0,0,0-.675-.341h-.3V110.6h3.567v.286a2.947,2.947,0,0,0-.531.039,1.145,1.145,0,0,0-.35.116.727.727,0,0,0-.215.183,1.05,1.05,0,0,0-.13.228,4.374,4.374,0,0,0-.094,1.186v6.6c0,.182.006.337.015.466a1.831,1.831,0,0,0,.049.321.651.651,0,0,0,.094.21.4.4,0,0,0,.151.128,2.85,2.85,0,0,0,.906.077h.576a3.2,3.2,0,0,0,1.272-.179,1.341,1.341,0,0,0,.35-.232,1.831,1.831,0,0,0,.316-.391,4.215,4.215,0,0,0,.3-.592A8.936,8.936,0,0,0,92.672,118.2Z"/><path class="cls-1" d="M32.1,121.1H29.3l-3.557-4.913c-.135,0-.255.009-.361.011s-.2,0-.282,0h-.218c-.078,0-.157-.007-.24-.011v3.053a2.144,2.144,0,0,0,.217,1.232,1.1,1.1,0,0,0,.884.341h.41v.287h-4.5v-.287h.395a1.066,1.066,0,0,0,.953-.435,2.431,2.431,0,0,0,.163-1.138v-6.789a2.155,2.155,0,0,0-.217-1.233,1.139,1.139,0,0,0-.9-.341h-.394v-.286h3.828a9,9,0,0,1,2.464.248,2.634,2.634,0,0,1,.741.349,2.776,2.776,0,0,1,.6.55,2.587,2.587,0,0,1,.411.713,2.342,2.342,0,0,1,.151.844,2.644,2.644,0,0,1-.155.911,2.3,2.3,0,0,1-.477.772,2.942,2.942,0,0,1-.809.6,4.719,4.719,0,0,1-1.147.4L29.43,119a5.35,5.35,0,0,0,1.279,1.379,3.27,3.27,0,0,0,1.394.435Zm-7.463-5.4h.434a4.579,4.579,0,0,0,1.322-.174,2.783,2.783,0,0,0,.949-.485,2,2,0,0,0,.57-.733,2.211,2.211,0,0,0,.19-.917,2.389,2.389,0,0,0-.164-.9,2.034,2.034,0,0,0-.46-.7,2.086,2.086,0,0,0-.713-.458,2.467,2.467,0,0,0-.911-.162,4.891,4.891,0,0,0-.527.035c-.2.023-.432.061-.69.112Z"/><path class="cls-1" d="M97.029,117.152H93.878l-.8,2.09a2.762,2.762,0,0,0-.237.914.663.663,0,0,0,.038.229.445.445,0,0,0,.157.194,1,1,0,0,0,.335.147,3.5,3.5,0,0,0,.565.089v.287H90.819v-.287a1.554,1.554,0,0,0,.767-.3,2.333,2.333,0,0,0,.374-.562q.192-.377.415-.95l3.327-8.648h.243l3.293,8.741a8.38,8.38,0,0,0,.372.873,2.118,2.118,0,0,0,.353.511.984.984,0,0,0,.394.252,1.971,1.971,0,0,0,.506.085v.287H97.131v-.287a2.109,2.109,0,0,0,.467-.07.875.875,0,0,0,.3-.139.509.509,0,0,0,.153-.194.617.617,0,0,0,.045-.24,1.515,1.515,0,0,0-.066-.438c-.049-.178-.12-.392-.213-.64Zm-.164-.557-1.39-3.553L94.1,116.6Z"/><path class="cls-1" d="M105.2,105.806l-6.914-9.329-7.547-1.59-8.1-36.452c3.676-.2,6.16-.267,6.16-.6l-.117-1.974,2.48-.087-3.18-24.741c0-.549-2.7-1.008-6.827-1.313l-.321,9.08c-1.676-.179-4.027-.158-6.014-.237l-.639-9.48c-1.076-.021-5.943,0-7,.016l-.808,9.464c-1.987.079-3.846.214-5.521.392l-.378-9.263c-4.127.3-6.8.792-6.8,1.341L50.254,55.787l2.529.12v1.708c0,.32,2.191.609,5.684.811.565-.136.8-.454,1.357-1.019.112-.115.321-.135.75-.3l-2.23-.157c0-.146-.007-.293-.009-.44l14.333-1.277c.039.137.078.275.116.413a5.638,5.638,0,0,1-1.339.521c-3.046.357-6.095.7-9.15.976a4.706,4.706,0,0,0-3.774,2.408l.252-1.107L50.445,94.887,42.9,96.477l-6.914,9.329L22.008,108.38h97.166ZM62.446,58.169a7.489,7.489,0,0,1,2.1-.408l.5.146a13,13,0,0,0-1.459.321,4.358,4.358,0,0,0-.934.554L61.34,59.1A3.668,3.668,0,0,1,62.446,58.169Zm.371,30.941H58.389a23.08,23.08,0,0,0,2.725-3.29,9.823,9.823,0,0,0,.9-3.391c.132-.931.311-1.426,1.428-1.371a29.068,29.068,0,0,0,3.807-.313c-.486,1.371-.906,2.553-1.392,3.92l-1.743-1.449c-.376,1.293-.191,3.18-2.608,2.838,1.555.367,2.122,2.358,3.932,1.86a2.45,2.45,0,0,1,.531,1.328c-.14,1.225-.467,2.431-.772,3.9-1.753,0-3.547-.1-5.323.031a47.558,47.558,0,0,0-4.7.775c-.966.172-1.08-.138-.939-1.087.081-.542-.546-1.189-.771-1.625l9.361-1.864C62.823,89.282,62.82,89.2,62.817,89.11Zm3.728,6.581c.142.425.359,1.079.575,1.725a3.973,3.973,0,0,1-4.792-1.8,4.776,4.776,0,0,1-4.413,2.129c-.365-.024-1,.581-1.123,1.006-.64,2.223-1.177,4.476-1.647,6.741-.025.118.884.43,1.382.82l-2.759-.65c-.258.555-9.023.993-12.607.328,1.869-.464,3.959.425,4.62-1.931.449.3.828.564.86.587.664-1.4,1.275-2.769,1.967-4.1a11.611,11.611,0,0,1,1.533-2.423c.827-.928.3-1.349-.21-1.663A18.129,18.129,0,0,1,53.1,95.189a45.711,45.711,0,0,1,5.391-.7c2.681-.245,5.368-.464,8.057-.59.852-.039,1.988-.478,2.421.664l-3.856.352c-.023.091-.045.181-.067.272ZM60.608,42.32l-.1-.139.131-.175a21.961,21.961,0,0,1,3.968-.438c2.13-.029,3.239,0,3.239,0l-.092.353s-1.331.138-2.48.187c-1.039.045-1.858.059-2.093.073C62.687,42.211,60.608,42.32,60.608,42.32Zm12.808,12.2-1.662-.231s-2.626-.015-3.588-.029-4.231.263-4.231.263l-.263-.263a27.756,27.756,0,0,1,4.348-.525c1.75,0,3.15.321,3.675.262a11.44,11.44,0,0,0,1.722-.495l.525.378Zm4.063-12.308h-.3l-.193-.033L74.3,42l-.466-.342,5.291.166Z"/></svg>